<svg xmlns="http://www.w3.org/2000/svg" width="22" height="17" viewBox="0 0 22 17" fill="none">
  <path d="M18 4.5L14 8.5H17C17 10.0913 16.3679 11.6174 15.2426 12.7426C14.1174 13.8679 12.5913 14.5 11 14.5C10 14.5 9.03 14.25 8.2 13.8L6.74 15.26C7.97 16.04 9.43 16.5 11 16.5C13.1217 16.5 15.1566 15.6571 16.6569 14.1569C18.1571 12.6566 19 10.6217 19 8.5H22M5 8.5C5 6.9087 5.63214 5.38258 6.75736 4.25736C7.88258 3.13214 9.4087 2.5 11 2.5C12 2.5 12.97 2.75 13.8 3.2L15.26 1.74C14.03 0.96 12.57 0.5 11 0.5C8.87827 0.5 6.84344 1.34285 5.34315 2.84315C3.84285 4.34344 3 6.37827 3 8.5H0L4 12.5L8 8.5" fill="white"/>
</svg>
